<svg width="319" height="303" viewBox="0 0 319 303" fill="none" xmlns="http://www.w3.org/2000/svg">
<g clip-path="url(#clip0_44_377)">
<path d="M219.297 150.974H242.457V302.517H219.297V150.974Z" fill="white"/>
<path d="M219.288 150.974H236.498V302.517H219.288V150.974Z" fill="#333333"/>
<path d="M133.054 25.009H124.186C110.908 25.009 98.1751 30.2834 88.7867 39.6718C79.3983 49.0602 74.1239 61.7936 74.1239 75.0708V178.068H175.01V66.9652C175.01 55.8377 170.589 45.166 162.721 37.2977C154.853 29.4294 144.181 25.009 133.054 25.009Z" fill="#333333"/>
<path d="M74.1327 178.068V73.2742C74.1201 68.6241 74.7782 63.9964 76.0868 59.5342L81.7738 61.6811C80.6945 65.451 80.146 69.3529 80.1439 73.2742V172.022H175.01V178.068H74.1327Z" fill="#6B6AD9"/>
<path d="M75.8679 87.2685L162.05 94.5766L122.696 54.4431L75.8679 87.2685Z" fill="#C98787"/>
<path d="M75.8538 87.2897L162.033 94.6021L156.953 154.473L70.7737 147.161L75.8538 87.2897Z" fill="#FBD3D3"/>
<path d="M162.041 94.6116L75.8679 87.3035L115.213 127.437L162.041 94.6116Z" fill="#112211"/>
<path d="M150.509 82.1247L148.651 104.032L115.213 127.455L87.4784 99.1332L90.186 67.2805L141.685 71.6619C144.24 71.8849 146.603 73.1109 148.257 75.0717C149.911 77.0324 150.72 79.5684 150.509 82.1247Z" fill="white"/>
<path d="M89.6604 67.2367L140.966 71.6181L141.668 71.6795C143.045 71.7971 144.381 72.2095 145.584 72.8887C142.281 72.6083 140.975 75.6052 140.467 78.3129L140.16 82.4139L83.5177 77.6119L83.9909 72.0563C84.0462 71.3674 84.2368 70.6961 84.5517 70.0809C84.8667 69.4657 85.2999 68.9187 85.8264 68.471C86.353 68.0234 86.9627 67.684 87.6206 67.4722C88.2784 67.2604 88.9716 67.1804 89.6604 67.2367Z" fill="#FBD3D3"/>
<path d="M84.7352 81.2031L181.76 104.981L165.241 172.387L68.216 148.61L84.7352 81.2031Z" fill="white"/>
<path d="M181.757 104.987L84.7359 81.2134L122.442 134.053L181.757 104.987Z" fill="#73A7B5"/>
<path d="M120.777 141.475L114.363 128.787C114.015 128.096 113.806 127.344 113.749 126.573C113.691 125.802 113.786 125.027 114.029 124.293C114.271 123.558 114.655 122.879 115.16 122.293C115.664 121.707 116.279 121.226 116.97 120.878C117.66 120.53 118.413 120.321 119.184 120.264C119.955 120.207 120.73 120.302 121.464 120.544C122.198 120.786 122.878 121.17 123.464 121.675C124.05 122.18 124.53 122.795 124.878 123.485L125.606 124.913L126.911 124.134C127.575 123.738 128.309 123.478 129.074 123.366C129.838 123.255 130.616 123.295 131.365 123.485C132.114 123.674 132.818 124.01 133.437 124.471C134.056 124.933 134.578 125.512 134.973 126.175C135.368 126.839 135.629 127.573 135.74 128.338C135.852 129.102 135.811 129.88 135.622 130.629C135.432 131.378 135.097 132.082 134.635 132.701C134.174 133.32 133.595 133.842 132.931 134.237L120.777 141.475Z" fill="#FBD3D3"/>
<path d="M91.1234 154.418L91.4476 108.255L98.2388 155.977L91.1234 154.418Z" fill="#333333"/>
<path d="M91.4247 108.242L190.933 99.4482L197.042 168.58L97.5338 177.373L91.4247 108.242Z" fill="#D9B2B2"/>
<path d="M190.949 99.4575L91.4474 108.255L144.182 146.111L190.949 99.4575Z" fill="#FBD3D3"/>
<path d="M126.753 25.009H264.329C278.766 25.009 292.611 30.7441 302.82 40.9525C313.028 51.1609 318.763 65.0065 318.763 79.4434V178.068H175.054V73.2744C175.054 66.9332 173.804 60.6541 171.376 54.796C168.949 48.9379 165.39 43.6156 160.905 39.1332C156.419 34.6509 151.094 31.0965 145.234 28.673C139.374 26.2495 133.094 25.0044 126.753 25.009Z" fill="#4543B2"/>
<path d="M299.643 38.0742C305.628 43.1779 310.433 49.5201 313.727 56.6627C317.021 63.8053 318.724 71.5779 318.72 79.4433V88.1535H175.01V73.2568C175.014 66.6599 173.662 60.1326 171.038 54.0803C168.413 48.028 164.573 42.5798 159.754 38.0742H299.643Z" fill="#6B6AD9"/>
<path d="M168.972 73.2743C168.958 62.0822 164.505 51.3526 156.591 43.4394C148.676 35.5262 137.945 31.0756 126.753 31.064H122.372C113.194 31.0783 104.271 34.0784 96.9483 39.6112C89.626 45.1439 84.3028 52.909 81.7826 61.7337L76.0955 59.5869C79.0599 49.6145 85.166 40.8664 93.5046 34.6452C101.843 28.4241 111.968 25.0626 122.372 25.0615H126.753C139.552 25.0638 151.827 30.15 160.876 39.2012C169.926 48.2525 175.01 60.5276 175.01 73.3269V172.022H168.972V73.2743Z" fill="#6B6AD9"/>
<path d="M294.402 158.58H295.62C296.242 158.617 296.827 158.891 297.254 159.344C297.681 159.798 297.919 160.397 297.919 161.021C297.919 161.644 297.681 162.243 297.254 162.697C296.827 163.15 296.242 163.424 295.62 163.461H294.402C294.07 163.481 293.736 163.433 293.423 163.319C293.109 163.205 292.823 163.029 292.58 162.8C292.337 162.572 292.144 162.296 292.012 161.99C291.879 161.684 291.811 161.354 291.811 161.021C291.811 160.687 291.879 160.357 292.012 160.051C292.144 159.745 292.337 159.469 292.58 159.241C292.823 159.012 293.109 158.836 293.423 158.722C293.736 158.608 294.07 158.56 294.402 158.58Z" fill="#333333"/>
<path d="M295.621 163.452C294.275 163.452 293.185 162.362 293.185 161.016C293.185 159.671 294.275 158.58 295.621 158.58C296.966 158.58 298.057 159.671 298.057 161.016C298.057 162.362 296.966 163.452 295.621 163.452Z" fill="white"/>
<path d="M294.569 161.016C294.569 161.247 294.637 161.472 294.765 161.664C294.893 161.855 295.075 162.005 295.288 162.093C295.501 162.181 295.736 162.204 295.962 162.159C296.188 162.114 296.396 162.003 296.559 161.84C296.722 161.677 296.833 161.469 296.878 161.243C296.922 161.017 296.899 160.783 296.811 160.57C296.723 160.357 296.574 160.175 296.382 160.047C296.19 159.919 295.965 159.851 295.734 159.851C295.425 159.851 295.129 159.973 294.91 160.192C294.692 160.411 294.569 160.707 294.569 161.016Z" fill="#333333"/>
<path d="M270.261 158.58H271.496C271.829 158.56 272.162 158.608 272.476 158.722C272.789 158.836 273.076 159.012 273.319 159.241C273.562 159.469 273.755 159.745 273.887 160.051C274.019 160.357 274.087 160.687 274.087 161.021C274.087 161.354 274.019 161.684 273.887 161.99C273.755 162.296 273.562 162.572 273.319 162.8C273.076 163.029 272.789 163.205 272.476 163.319C272.162 163.433 271.829 163.481 271.496 163.461H270.278C269.656 163.424 269.072 163.15 268.645 162.697C268.218 162.243 267.98 161.644 267.98 161.021C267.98 160.397 268.218 159.798 268.645 159.344C269.072 158.891 269.656 158.617 270.278 158.58H270.261Z" fill="#333333"/>
<path d="M271.479 163.452C270.134 163.452 269.043 162.362 269.043 161.016C269.043 159.671 270.134 158.58 271.479 158.58C272.825 158.58 273.916 159.671 273.916 161.016C273.916 162.362 272.825 163.452 271.479 163.452Z" fill="white"/>
<path d="M270.428 161.016C270.428 161.247 270.496 161.472 270.624 161.664C270.752 161.855 270.934 162.005 271.147 162.093C271.36 162.181 271.595 162.204 271.821 162.159C272.047 162.114 272.254 162.003 272.417 161.84C272.58 161.677 272.691 161.469 272.736 161.243C272.781 161.017 272.758 160.783 272.67 160.57C272.582 160.357 272.432 160.175 272.241 160.047C272.049 159.919 271.824 159.851 271.593 159.851C271.284 159.851 270.988 159.973 270.769 160.192C270.551 160.411 270.428 160.707 270.428 161.016Z" fill="#333333"/>
<path d="M246.085 158.58H247.311C247.933 158.617 248.518 158.891 248.945 159.344C249.372 159.798 249.61 160.397 249.61 161.021C249.61 161.644 249.372 162.243 248.945 162.697C248.518 163.15 247.933 163.424 247.311 163.461H246.085C245.463 163.424 244.878 163.15 244.451 162.697C244.024 162.243 243.786 161.644 243.786 161.021C243.786 160.397 244.024 159.798 244.451 159.344C244.878 158.891 245.463 158.617 246.085 158.58Z" fill="#333333"/>
<path d="M247.337 163.452C245.992 163.452 244.901 162.362 244.901 161.016C244.901 159.671 245.992 158.58 247.337 158.58C248.683 158.58 249.773 159.671 249.773 161.016C249.773 162.362 248.683 163.452 247.337 163.452Z" fill="white"/>
<path d="M246.295 161.016C246.295 161.247 246.363 161.472 246.491 161.664C246.62 161.855 246.802 162.005 247.015 162.093C247.227 162.181 247.462 162.204 247.688 162.159C247.914 162.114 248.122 162.003 248.285 161.84C248.448 161.677 248.559 161.47 248.604 161.243C248.649 161.017 248.625 160.783 248.537 160.57C248.449 160.357 248.3 160.175 248.108 160.047C247.916 159.919 247.691 159.851 247.461 159.851C247.307 159.849 247.155 159.879 247.013 159.937C246.871 159.995 246.742 160.081 246.634 160.189C246.525 160.298 246.44 160.427 246.381 160.569C246.323 160.711 246.294 160.863 246.295 161.016Z" fill="#333333"/>
<path d="M221.987 158.58H223.205C223.827 158.617 224.412 158.891 224.839 159.344C225.266 159.798 225.504 160.397 225.504 161.021C225.504 161.644 225.266 162.243 224.839 162.697C224.412 163.15 223.827 163.424 223.205 163.461H221.987C221.655 163.481 221.321 163.433 221.008 163.319C220.694 163.205 220.408 163.029 220.165 162.8C219.922 162.572 219.729 162.296 219.597 161.99C219.464 161.684 219.396 161.354 219.396 161.021C219.396 160.687 219.464 160.357 219.597 160.051C219.729 159.745 219.922 159.469 220.165 159.241C220.408 159.012 220.694 158.836 221.008 158.722C221.321 158.608 221.655 158.56 221.987 158.58Z" fill="#333333"/>
<path d="M223.206 163.452C221.86 163.452 220.769 162.362 220.769 161.016C220.769 159.671 221.86 158.58 223.206 158.58C224.551 158.58 225.642 159.671 225.642 161.016C225.642 162.362 224.551 163.452 223.206 163.452Z" fill="white"/>
<path d="M222.154 161.016C222.149 161.248 222.213 161.477 222.339 161.672C222.464 161.868 222.645 162.021 222.859 162.113C223.072 162.205 223.308 162.23 223.537 162.187C223.765 162.144 223.975 162.033 224.14 161.869C224.305 161.706 224.417 161.497 224.462 161.269C224.507 161.041 224.483 160.804 224.393 160.59C224.303 160.376 224.151 160.194 223.957 160.067C223.762 159.939 223.534 159.873 223.302 159.877C222.999 159.879 222.71 160 222.496 160.212C222.281 160.425 222.158 160.714 222.154 161.016Z" fill="#333333"/>
<path d="M197.846 158.58H199.064C199.397 158.56 199.73 158.608 200.044 158.722C200.357 158.836 200.644 159.012 200.887 159.241C201.129 159.469 201.323 159.745 201.455 160.051C201.587 160.357 201.655 160.687 201.655 161.021C201.655 161.354 201.587 161.684 201.455 161.99C201.323 162.296 201.129 162.572 200.887 162.8C200.644 163.029 200.357 163.205 200.044 163.319C199.73 163.433 199.397 163.481 199.064 163.461H197.846C197.224 163.424 196.64 163.15 196.213 162.697C195.786 162.243 195.548 161.644 195.548 161.021C195.548 160.397 195.786 159.798 196.213 159.344C196.64 158.891 197.224 158.617 197.846 158.58Z" fill="#333333"/>
<path d="M199.063 163.452C197.718 163.452 196.627 162.362 196.627 161.016C196.627 159.671 197.718 158.58 199.063 158.58C200.409 158.58 201.5 159.671 201.5 161.016C201.5 162.362 200.409 163.452 199.063 163.452Z" fill="white"/>
<path d="M198.012 161.016C198.012 161.247 198.081 161.472 198.209 161.664C198.337 161.855 198.519 162.005 198.732 162.093C198.945 162.181 199.179 162.204 199.405 162.159C199.631 162.114 199.839 162.003 200.002 161.84C200.165 161.677 200.276 161.469 200.321 161.243C200.366 161.017 200.343 160.783 200.255 160.57C200.166 160.357 200.017 160.175 199.825 160.047C199.634 159.919 199.408 159.851 199.178 159.851C199.025 159.851 198.873 159.881 198.732 159.939C198.59 159.998 198.462 160.084 198.354 160.192C198.245 160.3 198.16 160.429 198.101 160.57C198.043 160.711 198.012 160.863 198.012 161.016Z" fill="#333333"/>
<path d="M1.69955 186.375H49.2727C51.4926 186.375 53.7067 186.302 55.9149 186.156L175.01 178.068H74.1327L1.60318 182.993C1.38108 182.999 1.1624 183.049 0.959632 183.14C0.756866 183.231 0.573994 183.361 0.421425 183.522C0.268856 183.684 0.149582 183.874 0.0704379 184.082C-0.00870637 184.289 -0.0461747 184.51 -0.0398456 184.732C-0.0335165 184.955 0.0165028 185.173 0.107342 185.376C0.198181 185.579 0.328071 185.762 0.48959 185.914C0.651109 186.067 0.841099 186.186 1.04871 186.265C1.25632 186.344 1.47746 186.382 1.69955 186.375Z" fill="#4543B2"/>
<path d="M150.378 25.009C160.204 29.0355 168.451 36.1537 173.871 45.2861C178.912 53.7512 181.57 63.4219 181.564 73.2744V171.523H312.13V79.4434C312.13 57.1159 294.814 32.6239 256.46 25.009H261.139C296.909 33.6929 313.181 57.589 313.181 79.4434V172.53H180.557V73.2744C180.56 63.6039 177.951 54.1122 173.003 45.8031C167.236 36.0685 158.199 28.699 147.503 25.009H150.378Z" fill="#6B6AD9"/>
<path d="M1.60313 182.993L2.75105 182.914L45.3119 182.704C47.5259 182.704 49.74 182.631 51.954 182.485L137.426 177.832L174.992 178.068L55.9323 186.165C53.7241 186.311 51.5101 186.384 49.2902 186.384H1.71705C1.26735 186.399 0.830056 186.235 0.501388 185.928C0.17272 185.621 -0.0204026 185.195 -0.0355088 184.746C-0.050615 184.296 0.113537 183.859 0.420841 183.53C0.728146 183.201 1.15343 183.008 1.60313 182.993Z" fill="#6B6AD9"/>
<path d="M200.746 0H211.227V108.79H200.746V0Z" fill="white"/>
<path d="M200.746 0H203.9V108.79H200.746V0Z" fill="#333333"/>
<path d="M232.196 12.9689L203.962 17.9286V0H232.196V12.9689Z" fill="white"/>
<path d="M202.201 100.378H206.959C208.235 100.339 209.506 100.557 210.696 101.018C211.886 101.48 212.971 102.176 213.887 103.064C214.803 103.953 215.531 105.017 216.029 106.192C216.526 107.368 216.782 108.631 216.782 109.907C216.782 111.184 216.526 112.447 216.029 113.622C215.531 114.798 214.803 115.861 213.887 116.75C212.971 117.639 211.886 118.335 210.696 118.796C209.506 119.258 208.235 119.475 206.959 119.437H202.201C200.925 119.475 199.655 119.258 198.465 118.796C197.275 118.335 196.19 117.639 195.274 116.75C194.358 115.861 193.629 114.798 193.132 113.622C192.634 112.447 192.378 111.184 192.378 109.907C192.378 108.631 192.634 107.368 193.132 106.192C193.629 105.017 194.358 103.953 195.274 103.064C196.19 102.176 197.275 101.48 198.465 101.018C199.655 100.557 200.925 100.339 202.201 100.378Z" fill="#333333"/>
<path d="M197.666 112.123C196.45 106.999 199.618 101.861 204.741 100.645C209.864 99.4291 215.003 102.597 216.219 107.72C217.434 112.843 214.267 117.982 209.144 119.197C204.021 120.413 198.882 117.246 197.666 112.123Z" fill="white"/>
<path d="M202.849 109.929C202.849 110.83 203.116 111.711 203.617 112.46C204.118 113.21 204.829 113.794 205.662 114.139C206.495 114.484 207.411 114.574 208.295 114.398C209.179 114.222 209.991 113.788 210.628 113.151C211.265 112.514 211.699 111.702 211.875 110.818C212.051 109.934 211.96 109.018 211.616 108.185C211.271 107.353 210.687 106.641 209.937 106.14C209.188 105.64 208.307 105.372 207.406 105.372C206.197 105.372 205.038 105.852 204.184 106.707C203.329 107.561 202.849 108.72 202.849 109.929Z" fill="#333333"/>
</g>
<defs>
<clipPath id="clip0_44_377">
<rect width="318.72" height="302.509" fill="white" transform="matrix(-1 0 0 1 318.72 0)"/>
</clipPath>
</defs>
</svg>
